<svg viewBox="0 0 800 200" xmlns="http://www.w3.org/2000/svg">
  <defs>
    <linearGradient id="waveGradient" x1="0" x2="0" y1="0" y2="1">
      <stop offset="0%" stop-color="#D1B29F" />
      <stop offset="100%" stop-color="#D1B29F" />
    </linearGradient>
  </defs>

  <g fill="url(#waveGradient)">
    <rect x="0" y="100" width="20" height="100" />
    <rect x="40" y="110" width="20" height="90" />
    <rect x="80" y="80" width="20" height="120" />
    <rect x="120" y="90" width="20" height="110" />
    <rect x="160" y="60" width="20" height="140" />
    <rect x="200" y="100" width="20" height="100" />
    <rect x="240" y="110" width="20" height="90" />
    <rect x="280" y="80" width="20" height="120" />
    <rect x="320" y="90" width="20" height="110" />
    <rect x="360" y="60" width="20" height="140" />
    <rect x="400" y="100" width="20" height="100" />
    <rect x="440" y="110" width="20" height="90" />
    <rect x="480" y="80" width="20" height="120" />
    <rect x="520" y="90" width="20" height="110" />
    <rect x="560" y="60" width="20" height="140" />
    <rect x="600" y="100" width="20" height="100" />
    <rect x="640" y="110" width="20" height="90" />
    <rect x="680" y="80" width="20" height="120" />
    <rect x="720" y="90" width="20" height="110" />
    <rect x="760" y="60" width="20" height="140" />
  </g>
</svg>